<svg width="118" height="30" viewBox="0 0 118 30" fill="none" xmlns="http://www.w3.org/2000/svg">
<path d="M82.2428 9.15338C80.4148 9.46719 78.6843 9.76271 76.9111 10.0643C76.2622 8.06877 74.8729 6.93847 72.9474 6.46928C70.6716 5.91784 68.4323 5.97572 66.3728 7.2218C65.8914 7.51123 65.4801 8.02002 65.2028 8.51967C64.6605 9.48851 64.9256 10.5366 65.9036 11.0697C66.7749 11.545 67.7316 11.9197 68.6943 12.1635C71.1103 12.7758 73.5568 13.2664 75.9788 13.8513C78.0262 14.3449 79.7445 15.3929 81.0241 17.0929C81.7279 18.0252 82.191 19.0733 82.2062 20.2584C82.2702 24.9228 80.2899 27.7654 75.8021 29.1181C72.0761 30.2392 68.3013 30.2697 64.624 28.8378C61.7114 27.7044 59.856 25.5139 58.8079 22.6104C58.4972 21.7452 58.616 21.5685 59.4934 21.4192C60.7578 21.2029 62.0191 20.9774 63.2835 20.7611C63.6216 20.7032 63.9507 20.6179 64.1304 21.078C64.8921 23.0126 66.4185 24.0088 68.3866 24.3562C70.3943 24.7096 72.4021 24.7248 74.3245 23.89C75.1105 23.5488 75.8326 23.107 76.2104 22.2753C76.7253 21.1419 76.509 20.0908 75.3908 19.5821C74.1356 19.0093 72.7829 18.6163 71.4424 18.272C69.4042 17.748 67.3172 17.4128 65.2942 16.8492C63.2469 16.2795 61.4433 15.2345 60.2429 13.3913C58.2687 10.3507 58.8993 6.14025 61.6596 3.78824C63.9324 1.85361 66.5738 0.954847 69.5474 0.88782C71.8324 0.836027 74.0716 0.963991 76.2195 1.84447C79.1931 3.06313 81.085 5.26281 82.1209 8.25462C82.2062 8.50444 82.194 8.78777 82.2367 9.14423L82.2428 9.15338Z" fill="white"/>
<path d="M30.005 0.994261H35.8302C35.8302 1.29283 35.8302 1.55484 35.8302 1.8199C35.8332 6.93522 35.8241 12.0475 35.8515 17.1628C35.8576 18.1591 35.9459 19.1614 36.0952 20.1455C36.4182 22.2477 37.6825 23.509 39.7695 23.9508C41.2502 24.2646 42.7247 24.225 44.1871 23.8198C46.0517 23.3018 47.0723 22.0375 47.3404 20.1821C47.4897 19.1523 47.5628 18.1012 47.5689 17.0623C47.5963 11.9927 47.5872 6.92608 47.5902 1.85646C47.5902 1.58835 47.5902 1.31721 47.5902 1.00645H53.5282V1.82904C53.5282 7.80657 53.5525 13.7841 53.519 19.7616C53.4977 23.6583 51.2432 28.3715 45.8597 29.4713C42.414 30.1751 38.9225 30.2908 35.6169 28.8224C31.9487 27.1954 30.0994 24.2219 30.0294 20.31C29.9227 14.1527 30.0019 7.99241 30.0019 1.83209C30.0019 1.56398 30.0019 1.29892 30.0019 0.991211L30.005 0.994261Z" fill="white"/>
<path d="M0.525391 1.2168H23.9206C23.948 1.38741 23.9937 1.5367 23.9937 1.68903C23.9998 3.20322 23.9815 4.71436 24.0059 6.22855C24.0151 6.71906 23.8444 6.85615 23.3722 6.85006C20.944 6.83178 18.5128 6.84091 16.0816 6.84091C15.8348 6.84091 15.5911 6.84091 15.2498 6.84091V7.79451C15.2498 14.8993 15.2407 22.0071 15.2651 29.1119C15.2651 29.8066 15.0914 30.0198 14.3846 29.9985C12.6724 29.9467 10.9571 29.9833 9.18092 29.9833V6.89575H0.525391V1.21985V1.2168Z" fill="white"/>
<path d="M109.047 14.9512C107.216 12.7972 105.446 10.7103 103.676 8.62635C101.656 6.24691 99.639 3.86748 97.6069 1.50023C97.4211 1.28392 97.1591 1.028 96.9306 1.02495C94.1612 0.99144 91.3948 1.00362 88.4274 1.00362C92.4642 5.75944 96.373 10.369 100.361 15.07C96.3212 19.9782 92.3027 24.8558 88.1318 29.9194C88.5431 29.9437 88.7534 29.9651 88.9605 29.9651C91.3674 29.9651 93.7742 29.9803 96.178 29.9498C96.4827 29.9468 96.8696 29.7945 97.0799 29.5385C100.958 24.8589 104.818 20.1549 108.681 15.4539C108.794 15.3168 108.889 15.1614 109.041 14.9512H109.047Z" fill="#48B694"/>
<path d="M117.475 29.9374C117.475 20.2339 117.475 10.6461 117.475 1.00342C115.537 1.00342 113.624 1.00342 111.613 1.00342C111.613 1.95702 111.613 2.90757 111.613 3.85813C111.638 12.1846 111.665 20.5142 111.689 28.8407C111.691 29.5698 111.991 29.9354 112.588 29.9374C114.188 29.9374 115.79 29.9374 117.472 29.9374H117.475Z" fill="#48B694"/>
</svg>
