<svg width="490" height="77" viewBox="0 0 490 77" fill="none" xmlns="http://www.w3.org/2000/svg">
<g clip-path="url(#clip0_310_34)">
<path d="M490 0C490 0 472.394 8.69074 457.766 14.4846C449.388 17.8015 413.072 40.2237 384.628 55.0414C354.043 70.9744 335.426 72.4229 326.117 73.8713C298.191 78.2167 255.638 76.7682 255.638 76.7682H234.362C234.362 76.7682 191.808 78.2167 163.883 73.8713C154.574 72.4229 135.957 70.9744 105.372 55.0414C76.9282 40.2237 40.6117 17.8015 32.234 14.4846C17.6064 8.69074 0 0 0 0H490Z" fill="black"/>
<path d="M261.243 24.1534C259.415 24.4672 257.684 24.7627 255.911 25.0643C255.262 23.0688 253.873 21.9385 251.947 21.4693C249.672 20.9178 247.432 20.9757 245.373 22.2218C244.891 22.5112 244.48 23.02 244.203 23.5197C243.661 24.4885 243.926 25.5366 244.904 26.0697C245.775 26.545 246.732 26.9197 247.694 27.1635C250.11 27.7758 252.557 28.2664 254.979 28.8513C257.026 29.3449 258.745 30.3929 260.024 32.0929C260.728 33.0252 261.191 34.0733 261.206 35.2584C261.27 39.9228 259.29 42.7654 254.802 44.1181C251.076 45.2392 247.301 45.2697 243.624 43.8378C240.711 42.7044 238.856 40.5139 237.808 37.6104C237.497 36.7452 237.616 36.5685 238.493 36.4192C239.758 36.2029 241.019 35.9774 242.283 35.7611C242.622 35.7032 242.951 35.6179 243.13 36.078C243.892 38.0126 245.418 39.0088 247.387 39.3562C249.394 39.7096 251.402 39.7248 253.325 38.89C254.111 38.5488 254.833 38.107 255.21 37.2753C255.725 36.1419 255.509 35.0908 254.391 34.5821C253.136 34.0093 251.783 33.6163 250.442 33.272C248.404 32.748 246.317 32.4128 244.294 31.8492C242.247 31.2795 240.443 30.2345 239.243 28.3913C237.269 25.3507 237.899 21.1402 240.66 18.7882C242.932 16.8536 245.574 15.9548 248.547 15.8878C250.832 15.836 253.072 15.964 255.22 16.8445C258.193 18.0631 260.085 20.2628 261.121 23.2546C261.206 23.5044 261.194 23.7878 261.237 24.1442L261.243 24.1534Z" fill="white"/>
<path d="M209.005 15.9943H214.83C214.83 16.2928 214.83 16.5548 214.83 16.8199C214.833 21.9352 214.824 27.0475 214.851 32.1628C214.858 33.1591 214.946 34.1614 215.095 35.1455C215.418 37.2477 216.683 38.509 218.769 38.9508C220.25 39.2646 221.725 39.225 223.187 38.8198C225.052 38.3018 226.072 37.0375 226.34 35.1821C226.49 34.1523 226.563 33.1012 226.569 32.0623C226.596 26.9927 226.587 21.9261 226.59 16.8565C226.59 16.5884 226.59 16.3172 226.59 16.0064H232.528V16.829C232.528 22.8066 232.553 28.7841 232.519 34.7616C232.498 38.6583 230.243 43.3715 224.86 44.4713C221.414 45.1751 217.923 45.2908 214.617 43.8224C210.949 42.1954 209.099 39.2219 209.029 35.31C208.923 29.1527 209.002 22.9924 209.002 16.8321C209.002 16.564 209.002 16.2989 209.002 15.9912L209.005 15.9943Z" fill="white"/>
<path d="M179.525 16.2168H202.921C202.948 16.3874 202.994 16.5367 202.994 16.689C203 18.2032 202.982 19.7144 203.006 21.2285C203.015 21.7191 202.844 21.8562 202.372 21.8501C199.944 21.8318 197.513 21.8409 195.082 21.8409C194.835 21.8409 194.591 21.8409 194.25 21.8409V22.7945C194.25 29.8993 194.241 37.0071 194.265 44.1119C194.265 44.8066 194.091 45.0198 193.385 44.9985C191.672 44.9467 189.957 44.9833 188.181 44.9833V21.8957H179.525V16.2198V16.2168Z" fill="white"/>
<path d="M288.047 29.9512C286.216 27.7972 284.446 25.7103 282.676 23.6263C280.656 21.2469 278.639 18.8675 276.607 16.5002C276.421 16.2839 276.159 16.028 275.931 16.025C273.161 15.9914 270.395 16.0036 267.427 16.0036C271.464 20.7594 275.373 25.369 279.361 30.07C275.321 34.9782 271.303 39.8558 267.132 44.9194C267.543 44.9437 267.753 44.9651 267.961 44.9651C270.367 44.9651 272.774 44.9803 275.178 44.9498C275.483 44.9468 275.87 44.7945 276.08 44.5385C279.958 39.8589 283.818 35.1549 287.681 30.4539C287.794 30.3168 287.889 30.1614 288.041 29.9512H288.047Z" fill="#48B694"/>
<path d="M296.475 44.9374C296.475 35.2339 296.475 25.6461 296.475 16.0034C294.537 16.0034 292.624 16.0034 290.613 16.0034C290.613 16.957 290.613 17.9076 290.613 18.8581C290.638 27.1846 290.665 35.5142 290.689 43.8407C290.691 44.5698 290.991 44.9354 291.588 44.9374C293.188 44.9374 294.79 44.9374 296.472 44.9374H296.475Z" fill="#48B694"/>
</g>
<defs>
<clipPath id="clip0_310_34">
<rect width="490" height="77" fill="white"/>
</clipPath>
</defs>
</svg>
