<?xml version="1.0" encoding="UTF-8"?>
<svg id="Capa_1" data-name="Capa 1" xmlns="http://www.w3.org/2000/svg" viewBox="0 0 373 508">
  <defs>
    <style>
      .cls-1 {
        fill: #00b891;
      }

      .cls-1,
      .cls-2 {
        stroke-width: 0px;
      }

      .cls-2 {
        fill: #fff;
      }
    </style>
  </defs>
  <path class="cls-2"
    d="M142.32,337.73c7.26-1.21,14.32-2.38,21-3.49,1.7,2.61,3.02,5.2,4.89,7.37,3.6,4.17,8.63,6.08,14.13,6.94,7.01,1.1,13.94.95,20.58-1.79,4-1.65,7.34-3.98,8.54-8.23.97-3.44-.09-6.29-3.12-8.41-3.48-2.42-7.56-3.5-11.66-4.44-7.71-1.77-15.48-3.31-23.17-5.19-6.16-1.5-12-3.78-17.17-7.4-15.46-10.84-13.83-29.89-5.07-40.17,5.95-6.98,13.81-11.09,22.82-13.29,12.08-2.95,24.14-2.61,35.95,1.18,13.05,4.19,21.35,12.93,25.87,25.04.38,1.03.71,2.07,1.06,3.11.04.12.04.26.07.51-4.57.76-9.11,1.53-13.66,2.29-2.18.36-4.35.74-6.53,1.09-.62.1-1.2.29-1.54-.61-2.88-7.74-8.99-11.89-17.27-13.41-7.5-1.38-14.92-1.22-22.02,1.83-3.23,1.38-5.98,3.32-7.49,6.5-1.91,4.02-.92,7.88,3.04,10.19,2.36,1.38,4.99,2.53,7.67,3.2,7.18,1.79,14.47,3.24,21.69,4.89,7,1.6,13.85,3.6,20.02,7.28,18.15,10.83,16.44,31.81,6.3,42.64-6.56,7-14.97,10.89-24.48,12.82-11.05,2.23-22.03,1.77-32.75-1.56-13.67-4.24-22.24-13.32-26.78-26-.32-.89-.58-1.8-.92-2.86Z" />
  <path class="cls-2"
    d="M167.22,246.7h-22.85v-1.55c0-20.41-.03-40.82.02-61.23.01-6.69,1.09-13.23,3.69-19.49,4.22-10.15,11.88-16.95,22.89-20.1,12.17-3.49,24.52-3.54,36.74-.21,13.74,3.75,21.9,12.68,25.44,25.56,1.3,4.75,1.91,9.6,1.91,14.5,0,20.22,0,40.44,0,60.66,0,.57,0,1.13,0,1.81h-22.85v-1.78c0-19.22.05-38.45-.05-57.67-.02-3.49-.31-7.03-1.02-10.45-1.69-8.12-6.71-12.47-15.45-13.78-5.48-.82-10.94-.65-16.26.92-6.94,2.04-10.37,6.89-11.41,13.37-.5,3.08-.75,6.23-.76,9.35-.07,19.41-.03,38.83-.03,58.24v1.85Z" />
  <path class="cls-2" d="M144.48,109.69h33.75V27h22.79v82.67h33.89v20.93h-90.43v-20.92Z" />
  <path class="cls-1"
    d="M244.72,468.63c-6.05-3.98-11.77-7.75-17.5-11.53-11.91-7.85-23.84-15.69-35.72-23.58-.94-.63-1.49-.5-2.33.1-17.7,12.76-35.43,25.5-53.16,38.23-.35.25-.71.47-1.23.8-.03-.6-.08-1.01-.08-1.42,0-7.74.02-15.47-.03-23.21,0-.92.33-1.44,1.1-1.97,17.94-12.14,35.85-24.31,53.78-36.47.24-.16.49-.32.81-.52,4.73,3.08,9.45,6.14,14.16,9.2,12.96,8.43,25.9,16.87,38.88,25.27.99.64,1.35,1.31,1.34,2.43-.05,6.98-.03,13.96-.03,20.93,0,.46,0,.93,0,1.71Z" />
  <path class="cls-1" d="M244.65,385.41v21.08h-109.83v-21.08h109.83Z" />
</svg>