<svg width="25" height="158" viewBox="0 0 25 158" fill="none" xmlns="http://www.w3.org/2000/svg">
<path d="M24.9808 91.1355C23.0443 91.5262 21.2137 91.8974 19.3353 92.2758C18.6496 89.7739 17.1785 88.3607 15.136 87.7733C12.7277 87.0827 10.3548 87.1539 8.17306 88.7171C7.66398 89.0808 7.22971 89.7149 6.93466 90.3416C6.36117 91.5557 6.6396 92.8657 7.67853 93.5367C8.60317 94.1314 9.61509 94.6009 10.6353 94.9081C13.1932 95.6749 15.7822 96.2893 18.3483 97.0217C20.5155 97.6386 22.3357 98.9535 23.6905 101.082C24.4344 102.252 24.9268 103.562 24.9434 105.049C25.0099 110.891 22.9134 114.452 18.1613 116.143C14.2175 117.546 10.2177 117.583 6.32377 115.791C3.24023 114.371 1.27458 111.628 0.165002 107.991C-0.165377 106.907 -0.0365501 106.685 0.890174 106.499C2.22831 106.231 3.56437 105.946 4.90459 105.675C5.26198 105.604 5.61106 105.498 5.80222 106.074C6.60843 108.497 8.22708 109.745 10.3091 110.18C12.4347 110.625 14.5625 110.642 16.5967 109.598C17.4299 109.17 18.1925 108.617 18.5935 107.575C19.14 106.157 18.9093 104.842 17.727 104.203C16.3972 103.486 14.9676 102.994 13.5464 102.561C11.3896 101.905 9.17874 101.485 7.03647 100.782C4.86719 100.069 2.95764 98.7618 1.68807 96.4491C-0.404331 92.6396 0.266817 87.3678 3.18828 84.4234C5.59444 81.9976 8.39331 80.8769 11.5413 80.7933C13.962 80.7294 16.3307 80.8892 18.606 81.9927C21.7539 83.5214 23.7591 86.2765 24.852 90.0221C24.9434 90.3342 24.9289 90.6882 24.9767 91.1379L24.9808 91.1355Z" fill="white"/>
<path d="M24.9359 76.6513H18.7688C18.7688 76.2753 18.7688 75.9411 18.7688 75.6068C18.7647 69.1479 18.775 62.689 18.746 56.2276C18.7397 54.9693 18.6462 53.7035 18.4883 52.4599C18.1475 49.8056 16.8073 48.213 14.5965 47.6526C13.0277 47.2569 11.4651 47.3085 9.91923 47.8197C7.94318 48.4735 6.8627 50.071 6.58011 52.4132C6.42219 53.7158 6.34531 55.0405 6.33908 56.3554C6.31207 62.7578 6.32038 69.1602 6.31415 75.5626C6.31415 75.9017 6.31415 76.2434 6.31415 76.6391H0.0265545V75.5994C0.0265545 68.0493 0.00162019 60.4992 0.0348659 52.949C0.0556444 48.0262 2.44518 42.076 8.14266 40.685C11.7914 39.7953 15.4879 39.6503 18.9891 41.5034C22.8747 43.558 24.832 47.3134 24.9047 52.2559C25.019 60.0346 24.9359 67.8158 24.9359 75.5945C24.9359 75.9312 24.9359 76.2679 24.9359 76.6563V76.6513Z" fill="white"/>
<path d="M24.9215 36.049H0.149315C0.120225 35.8376 0.0724348 35.6484 0.0724348 35.4592C0.0662012 33.5642 0.0869798 31.6693 0.0578898 29.7744C0.0495784 29.1625 0.230352 28.9904 0.731115 28.9953C3.3035 29.0199 5.87589 29.0052 8.44827 29.0052C8.708 29.0052 8.96981 29.0052 9.32928 29.0052V27.8107C9.32928 18.9113 9.33967 10.0118 9.31266 1.11242C9.31058 0.244842 9.49759 -0.0230503 10.2435 0.00152692C12.0575 0.0654278 13.8736 0.0236465 15.754 0.0236465V28.9413H24.9215V36.049Z" fill="white"/>
<path d="M12.9524 131.716C14.8058 134.009 16.599 136.223 18.3901 138.443C20.4347 140.974 22.4835 143.501 24.5177 146.042C24.7047 146.275 24.925 146.602 24.927 146.887C24.9561 150.355 24.9457 153.823 24.9457 157.537C20.8544 152.484 16.892 147.588 12.8505 142.591C8.63042 147.652 4.43523 152.683 0.0800408 157.905C0.0592622 157.392 0.0405615 157.129 0.0405615 156.866C0.0384836 153.853 0.0260165 150.839 0.0551065 147.826C0.0592622 147.443 0.188089 146.961 0.408342 146.696C4.43107 141.837 8.47666 137.002 12.5202 132.166C12.6365 132.025 12.7695 131.905 12.9544 131.716H12.9524Z" fill="#48B694"/>
<path d="M0.0595703 121.162H24.9232V128.503C24.1045 128.503 23.2858 128.506 22.4692 128.503C15.3131 128.471 8.15697 128.439 1.00084 128.407C0.374712 128.404 0.0609555 128.029 0.0595703 127.282C0.0595703 125.276 0.0595703 123.273 0.0595703 121.165V121.162Z" fill="#48B694"/>
</svg>
